<svg viewBox="0 0 100 100" xmlns="http://www.w3.org/2000/svg">
  <g fill="none" stroke="#5D4037" stroke-width="3.5" stroke-linecap="round" stroke-linejoin="round">
    <path d="M18 32 C16 24 24 14 40 14 C56 14 72 18 80 28 C88 38 86 54 78 66 C70 78 54 84 40 82 C26 80 16 68 14 54 C12 42 16 34 18 32Z" fill="#D7CCC8"/>
    <path d="M30 36 C32 34 38 32 44 34" stroke="#8D6E63" stroke-width="2.5" opacity="0.5"/>
    <path d="M56 30 C62 28 68 30 72 34" stroke="#8D6E63" stroke-width="2.5" opacity="0.5"/>
    <path d="M28 52 C34 48 42 46 50 50" stroke="#A1887F" stroke-width="2" opacity="0.3"/>
    <path d="M58 56 C64 52 70 54 74 58" stroke="#A1887F" stroke-width="2" opacity="0.3"/>
    <path d="M24 40 L22 42" stroke="#EF5350" stroke-width="2" opacity="0.6"/>
  </g>
</svg>