<svg viewBox="0 0 100 100" xmlns="http://www.w3.org/2000/svg">
  <g fill="none" stroke="#5D4037" stroke-width="3.5" stroke-linecap="round" stroke-linejoin="round">
    <path d="M24 35 C18 28 22 16 36 14 C50 12 60 16 68 24 C76 32 80 46 76 60 C72 74 58 84 44 82 C30 80 20 68 18 54 C16 44 20 36 24 35Z" fill="#FFCC80"/>
    <path d="M44 82 C42 90 38 94 36 92" stroke="#FFB74D" stroke-width="3"/>
    <path d="M44 82 C48 90 52 92 54 90" stroke="#FFB74D" stroke-width="3"/>
    <path d="M32 44 C38 40 46 38 54 42" stroke="#FFA726" stroke-width="2" opacity="0.4"/>
  </g>
</svg>