<svg viewBox="0 0 100 100" xmlns="http://www.w3.org/2000/svg">
  <g fill="none" stroke="#5D4037" stroke-width="3" stroke-linecap="round" stroke-linejoin="round">
    <path d="M36 88 C34 70 30 50 32 30 C34 18 38 12 42 10" stroke="#66BB6A" stroke-width="5"/>
    <path d="M50 88 C50 68 48 48 50 28 C52 16 54 10 56 8" stroke="#4CAF50" stroke-width="5"/>
    <path d="M64 88 C66 68 64 48 62 28 C60 16 58 10 56 8" stroke="#81C784" stroke-width="5"/>
    <path d="M36 88 C42 86 50 86 56 88" stroke="#388E3C" stroke-width="3"/>
    <path d="M50 88 C56 86 64 86 68 88" stroke="#388E3C" stroke-width="3"/>
    <path d="M38 48 C42 46 46 44 50 46" stroke="#388E3C" stroke-width="1.5" opacity="0.3"/>
  </g>
</svg>