<svg viewBox="0 0 100 100" xmlns="http://www.w3.org/2000/svg">
  <g fill="none" stroke="#5D4037" stroke-width="3.5" stroke-linecap="round" stroke-linejoin="round">
    <path d="M50 18 C32 20 16 40 18 62 C20 80 36 90 50 90 C64 90 80 80 82 62 C84 40 68 20 50 18Z" fill="#CE93D8" opacity="0.7"/>
    <path d="M50 18 C50 30 42 45 42 60 C42 75 48 86 50 90" stroke="#9C27B0" stroke-width="2" opacity="0.3"/>
    <path d="M50 18 C50 30 58 45 58 60 C58 75 52 86 50 90" stroke="#9C27B0" stroke-width="2" opacity="0.3"/>
    <path d="M50 22 C46 28 44 26 50 22" stroke="#4CAF50" stroke-width="2.5"/>
  </g>
</svg>