<svg viewBox="0 0 100 100" xmlns="http://www.w3.org/2000/svg">
  <g fill="none" stroke="#5D4037" stroke-width="3.5" stroke-linecap="round" stroke-linejoin="round">
    <path d="M20 28 C24 22 34 18 46 18" stroke="#D7CCC8" stroke-width="8"/>
    <path d="M54 18 C66 18 76 22 80 28" stroke="#D7CCC8" stroke-width="8"/>
    <path d="M30 28 L28 50" stroke="#5D4037" stroke-width="3"/>
    <path d="M42 28 L40 52" stroke="#5D4037" stroke-width="3"/>
    <path d="M54 28 L52 52" stroke="#5D4037" stroke-width="3"/>
    <path d="M66 28 L64 50" stroke="#5D4037" stroke-width="3"/>
    <path d="M22 50 C26 56 36 60 50 60 C64 60 74 56 78 50" stroke="#FFAB91" stroke-width="6" fill="none"/>
    <path d="M28 50 L28 68" stroke="#5D4037" stroke-width="2.5"/>
    <path d="M40 52 L38 70" stroke="#5D4037" stroke-width="2.5"/>
    <path d="M52 52 L54 70" stroke="#5D4037" stroke-width="2.5"/>
    <path d="M64 50 L66 68" stroke="#5D4037" stroke-width="2.5"/>
  </g>
</svg>