<svg viewBox="0 0 100 100" xmlns="http://www.w3.org/2000/svg">
  <g fill="none" stroke="#5D4037" stroke-width="3.5" stroke-linecap="round" stroke-linejoin="round">
    <path d="M20 58 C18 42 28 26 50 24 C72 26 82 42 80 58 C78 70 68 78 50 78 C32 78 22 70 20 58Z" fill="#FFF8E1"/>
    <path d="M20 58 C20 58 34 62 50 62 C66 62 80 58 80 58" stroke="#D7CCC8" stroke-width="2.5"/>
    <ellipse cx="38" cy="50" rx="5" ry="3" fill="#FFF" stroke="#D7CCC8" stroke-width="1.5"/>
    <ellipse cx="52" cy="48" rx="5" ry="3" fill="#FFF" stroke="#D7CCC8" stroke-width="1.5"/>
    <ellipse cx="64" cy="50" rx="4" ry="3" fill="#FFF" stroke="#D7CCC8" stroke-width="1.5"/>
    <ellipse cx="44" cy="42" rx="4" ry="2.5" fill="#FFF" stroke="#D7CCC8" stroke-width="1.5"/>
    <ellipse cx="58" cy="42" rx="4.5" ry="2.5" fill="#FFF" stroke="#D7CCC8" stroke-width="1.5"/>
  </g>
</svg>