<svg viewBox="0 0 100 100" xmlns="http://www.w3.org/2000/svg">
  <g fill="none" stroke="#5D4037" stroke-width="3" stroke-linecap="round" stroke-linejoin="round">
    <ellipse cx="50" cy="56" rx="38" ry="24" fill="#FFF8E1"/>
    <ellipse cx="50" cy="56" rx="38" ry="24" stroke="#5D4037"/>
    <path d="M30 50 C28 42 32 34 40 32 C46 30 50 34 48 40" fill="#66BB6A" stroke="#4CAF50" stroke-width="2"/>
    <path d="M56 32 C62 30 68 34 66 42 C64 48 58 50 54 46" fill="#66BB6A" stroke="#4CAF50" stroke-width="2"/>
    <path d="M36 56 C40 52 46 50 52 54" fill="#FFAB91" stroke="#FF7043" stroke-width="2"/>
    <path d="M54 52 C58 48 64 46 70 50" fill="#FFAB91" stroke="#FF7043" stroke-width="2"/>
    <path d="M42 60 C48 56 56 54 62 58" fill="#FFAB91" stroke="#FF7043" stroke-width="2"/>
  </g>
</svg>