<svg viewBox="0 0 100 100" xmlns="http://www.w3.org/2000/svg">
  <g fill="none" stroke="#5D4037" stroke-width="3.5" stroke-linecap="round" stroke-linejoin="round">
    <path d="M20 60 C18 44 28 28 50 26 C72 28 82 44 80 60 C78 72 68 80 50 80 C32 80 22 72 20 60Z" fill="#FFF8E1"/>
    <path d="M20 60 C20 60 34 64 50 64 C66 64 80 60 80 60" stroke="#D7CCC8" stroke-width="2.5"/>
    <path d="M34 30 C30 22 36 14 42 18 C38 12 46 8 50 14 C54 8 62 12 58 18 C64 14 70 22 66 30" stroke="#F9A825" stroke-width="2.5"/>
  </g>
</svg>